if (self._typeface_js && self._typeface_js.loadFace) self._typeface_js.loadFace({"glyphs":{"S":{"x_min":-9,"x_max":707,"ha":697,"o":"m 193 584 l 63 515 l 111 859 l 181 919 l 232 859 l 193 584 m 256 881 l 202 939 l 272 1000 l 707 1000 l 558 881 l 256 881 m 517 80 l 464 140 l 504 425 l 634 485 l 586 140 l 517 80 m 425 0 l -9 0 l 139 119 l 442 119 l 494 60 l 425 0 m 194 445 l 89 500 l 211 565 l 504 565 l 608 500 l 487 445 l 194 445 "},"/":{"x_min":-60,"x_max":833,"ha":773,"o":"m 81 0 l -60 0 l 274 444 l 414 444 l 81 0 m 435 473 l 385 594 l 691 999 l 833 999 l 435 473 "},"T":{"x_min":60,"x_max":655,"ha":575,"o":"m 216 0 l 163 65 l 214 423 l 286 487 l 337 423 l 287 65 l 216 0 m 288 502 l 234 561 l 276 855 l 347 921 l 398 855 l 356 561 l 288 502 m 139 881 l 60 1000 l 655 1000 l 542 881 l 410 881 l 352 950 l 269 881 l 139 881 "},"N":{"x_min":-10,"x_max":703,"ha":694,"o":"m 127 119 l -10 0 l 58 484 l 170 424 l 127 119 m 192 584 l 62 515 l 127 980 l 231 859 l 192 584 m 255 881 l 150 1000 l 684 1000 l 547 881 l 255 881 m 637 515 l 525 584 l 564 859 l 703 980 l 637 515 m 565 0 l 460 119 l 503 424 l 633 484 l 565 0 "},"K":{"x_min":-9,"x_max":707,"ha":697,"o":"m 128 119 l -9 0 l 59 485 l 171 425 l 128 119 m 193 584 l 63 515 l 131 999 l 235 880 l 193 584 m 566 0 l 461 119 l 504 425 l 634 485 l 566 0 m 194 445 l 89 500 l 211 565 l 504 565 l 608 500 l 487 445 l 194 445 m 304 588 l 218 588 l 231 674 l 618 999 l 707 999 l 694 917 l 304 588 "},"7":{"x_min":89,"x_max":641,"ha":700,"o":"m 575 515 l 464 584 l 503 859 l 641 980 l 575 515 m 503 0 l 399 119 l 442 424 l 571 484 l 503 0 m 192 881 l 89 1000 l 623 1000 l 485 881 l 192 881 "},",":{"x_min":-100,"x_max":139,"ha":189,"o":"m 25 -131 l -100 -131 l 13 215 l 139 215 l 25 -131 "},"Y":{"x_min":60,"x_max":704,"ha":694,"o":"m 275 0 l 226 69 l 275 418 l 398 418 l 349 69 l 275 0 m 191 445 l 85 500 l 208 565 l 501 565 l 605 500 l 484 445 l 191 445 m 190 584 l 60 515 l 128 999 l 232 880 l 190 584 m 635 515 l 523 584 l 565 880 l 704 999 l 635 515 "},"E":{"x_min":-10,"x_max":683,"ha":614,"o":"m 127 140 l -10 19 l 55 485 l 168 425 l 127 140 m 190 584 l 59 515 l 124 980 l 229 859 l 190 584 m 252 881 l 148 1000 l 683 1000 l 545 881 l 252 881 m 542 0 l 8 0 l 145 119 l 438 119 l 542 0 m 191 445 l 85 500 l 208 565 l 501 565 l 605 500 l 484 445 l 191 445 "},"2":{"x_min":11,"x_max":687,"ha":699,"o":"m 63 80 l 11 140 l 59 485 l 171 425 l 131 140 l 63 80 m 549 881 l 115 881 l 273 1000 l 566 1000 l 618 939 l 549 881 m 638 515 l 527 584 l 566 859 l 635 919 l 687 859 l 638 515 m 132 0 l 78 60 l 149 119 l 467 119 l 566 0 l 132 0 m 195 445 l 88 500 l 212 565 l 505 565 l 609 500 l 488 445 l 195 445 "},"Z":{"x_min":-68,"x_max":645,"ha":575,"o":"m 481 0 l 88 0 l 162 119 l 377 119 l 481 0 m 63 0 l -68 0 l 201 458 l 349 486 l 63 0 m 360 506 l 299 633 l 514 1000 l 645 1000 l 360 506 m 198 881 l 95 1000 l 486 1000 l 418 881 l 198 881 "},"1":{"x_min":152,"x_max":532,"ha":699,"o":"m 466 515 l 356 584 l 394 859 l 532 980 l 466 515 m 394 0 l 290 119 l 333 424 l 462 484 l 394 0 m 256 881 l 152 1000 l 515 1000 l 376 881 l 256 881 "},"\"":{"x_min":163,"x_max":422,"ha":378,"o":"m 250 688 l 163 688 l 190 1000 l 277 1000 l 250 688 m 394 688 l 307 688 l 334 1000 l 422 1000 l 394 688 "},"J":{"x_min":-10,"x_max":703,"ha":694,"o":"m 127 140 l -10 19 l 55 484 l 167 424 l 127 140 m 634 515 l 522 584 l 564 880 l 703 999 l 634 515 m 565 19 l 460 140 l 500 424 l 630 484 l 565 19 m 542 0 l 8 0 l 145 119 l 437 119 l 542 0 "},"W":{"x_min":10,"x_max":1161,"ha":1152,"o":"m 1093 515 l 980 575 l 1023 880 l 1161 999 l 1093 515 m 193 575 l 62 515 l 130 999 l 236 880 l 193 575 m 577 515 l 524 569 l 572 899 l 646 999 l 693 899 l 646 569 l 577 515 m 518 76 l 465 140 l 508 447 l 575 493 l 629 447 l 586 137 l 518 76 m 62 77 l 10 137 l 58 488 l 169 413 l 130 137 l 62 77 m 130 0 l 80 56 l 148 119 l 443 119 l 511 38 l 604 119 l 898 119 l 951 59 l 881 0 l 130 0 m 974 78 l 919 137 l 958 415 l 1090 488 l 1041 137 l 974 78 "},"B":{"x_min":-10,"x_max":684,"ha":694,"o":"m 127 140 l -10 19 l 55 485 l 167 425 l 127 140 m 189 584 l 59 515 l 124 980 l 228 859 l 189 584 m 252 881 l 148 1000 l 562 1000 l 614 939 l 545 881 l 252 881 m 635 515 l 523 584 l 562 859 l 631 919 l 684 859 l 635 515 m 513 80 l 460 140 l 501 425 l 631 485 l 582 140 l 513 80 m 421 0 l 8 0 l 145 119 l 438 119 l 491 60 l 421 0 m 191 445 l 85 500 l 207 565 l 501 565 l 605 500 l 484 445 l 191 445 "},"H":{"x_min":-9,"x_max":707,"ha":697,"o":"m 128 119 l -9 0 l 59 485 l 171 425 l 128 119 m 193 584 l 63 515 l 131 999 l 235 880 l 193 584 m 638 515 l 526 584 l 568 880 l 707 999 l 638 515 m 194 445 l 89 500 l 211 565 l 504 565 l 608 500 l 487 445 l 194 445 m 566 0 l 461 119 l 504 425 l 634 485 l 566 0 "},"?":{"x_min":50,"x_max":544,"ha":545,"o":"m 170 0 l 50 0 l 80 215 l 201 215 l 170 0 m 112 881 l 59 939 l 130 1000 l 421 1000 l 475 939 l 405 881 l 112 881 m 495 515 l 384 584 l 423 859 l 492 919 l 544 859 l 495 515 m 212 281 l 90 281 l 127 545 l 233 431 l 212 281 m 259 445 l 154 565 l 362 565 l 466 502 l 344 445 l 259 445 "},"D":{"x_min":-10,"x_max":684,"ha":694,"o":"m 127 140 l -10 19 l 55 484 l 167 424 l 127 140 m 189 584 l 59 515 l 124 980 l 228 859 l 189 584 m 252 881 l 148 1000 l 562 1000 l 614 939 l 545 881 l 252 881 m 635 515 l 523 584 l 562 859 l 631 919 l 684 859 l 635 515 m 513 80 l 460 140 l 501 424 l 631 484 l 582 140 l 513 80 m 421 0 l 8 0 l 145 119 l 438 119 l 491 60 l 421 0 "},"&":{"x_min":10,"x_max":837,"ha":807,"o":"m 62 80 l 10 140 l 58 485 l 170 425 l 130 140 l 62 80 m 192 584 l 62 515 l 111 859 l 180 919 l 231 859 l 192 584 m 255 881 l 201 939 l 272 1000 l 564 1000 l 617 939 l 548 881 l 255 881 m 131 0 l 77 60 l 148 119 l 441 119 l 494 60 l 424 0 l 131 0 m 387 445 l 273 501 l 386 565 l 506 565 l 559 500 l 490 445 l 387 445 m 580 518 l 530 584 l 548 711 l 617 773 l 670 711 l 652 583 l 580 518 m 652 445 l 598 498 l 671 565 l 728 565 l 837 500 l 727 445 l 652 445 m 517 81 l 466 140 l 506 423 l 574 479 l 628 422 l 588 138 l 517 81 "},"I":{"x_min":10,"x_max":254,"ha":244,"o":"m 185 515 l 74 584 l 116 880 l 254 999 l 185 515 m 113 0 l 10 119 l 52 424 l 181 484 l 113 0 "},"G":{"x_min":10,"x_max":680,"ha":690,"o":"m 62 80 l 10 140 l 58 485 l 170 425 l 130 140 l 62 80 m 192 584 l 62 515 l 111 859 l 180 919 l 231 859 l 192 584 m 255 881 l 201 939 l 272 1000 l 680 1000 l 548 881 l 255 881 m 516 80 l 463 140 l 503 425 l 632 485 l 585 140 l 516 80 m 131 0 l 77 60 l 148 119 l 441 119 l 494 60 l 424 0 l 131 0 m 376 445 l 269 500 l 392 565 l 503 565 l 607 500 l 487 445 l 376 445 "},"(":{"x_min":10,"x_max":429,"ha":360,"o":"m 62 80 l 10 140 l 58 484 l 170 424 l 130 140 l 62 80 m 192 584 l 62 515 l 111 859 l 180 919 l 231 859 l 192 584 m 255 881 l 201 939 l 272 1000 l 429 1000 l 320 881 l 255 881 m 131 0 l 77 60 l 148 119 l 213 119 l 287 0 l 131 0 "},"U":{"x_min":10,"x_max":705,"ha":696,"o":"m 62 80 l 10 140 l 58 484 l 170 424 l 130 140 l 62 80 m 192 584 l 62 515 l 130 999 l 235 884 l 192 584 m 636 515 l 525 584 l 568 884 l 705 999 l 636 515 m 516 80 l 463 140 l 503 424 l 632 484 l 585 140 l 516 80 m 131 0 l 77 60 l 148 119 l 441 119 l 494 60 l 424 0 l 131 0 "},"F":{"x_min":-9,"x_max":686,"ha":617,"o":"m 128 119 l -9 0 l 59 485 l 171 425 l 128 119 m 193 584 l 63 515 l 128 980 l 232 859 l 193 584 m 256 881 l 151 1000 l 686 1000 l 548 881 l 256 881 m 194 445 l 89 500 l 211 565 l 504 565 l 608 500 l 487 445 l 194 445 "},"$":{"x_min":10,"x_max":657,"ha":647,"o":"m 202 584 l 72 515 l 119 859 l 189 919 l 241 859 l 202 584 m 202 445 l 97 500 l 219 565 l 512 565 l 618 500 l 495 445 l 202 445 m 525 80 l 473 140 l 514 425 l 643 485 l 594 140 l 525 80 m 268 -166 l 214 -109 l 228 -15 l 294 33 l 348 -16 l 334 -116 l 268 -166 m 220 0 l 10 0 l 158 119 l 454 119 l 505 62 l 437 0 l 365 0 l 298 65 l 220 0 m 265 881 l 218 941 l 283 1000 l 361 1000 l 420 932 l 501 1000 l 657 1000 l 593 881 l 265 881 m 425 965 l 375 1022 l 387 1113 l 455 1173 l 508 1118 l 494 1022 l 425 965 "},":":{"x_min":-10,"x_max":202,"ha":233,"o":"m 110 0 l -10 0 l 20 215 l 141 215 l 110 0 m 172 445 l 52 445 l 81 650 l 202 650 l 172 445 "},"*":{"x_min":19,"x_max":523,"ha":504,"o":"m 85 577 l 19 606 l 38 683 l 223 781 l 271 741 l 263 675 l 85 577 m 456 577 l 295 673 l 305 744 l 367 777 l 521 685 l 523 613 l 456 577 m 293 765 l 238 812 l 264 993 l 332 1038 l 388 991 l 362 809 l 293 765 "},"V":{"x_min":61,"x_max":703,"ha":693,"o":"m 194 584 l 63 515 l 129 980 l 232 859 l 194 584 m 637 515 l 526 584 l 565 859 l 703 980 l 637 515 m 263 -1 l 61 498 l 213 457 l 299 250 l 263 -1 m 637 497 l 293 0 l 330 249 l 474 457 l 637 497 "},"-":{"x_min":-19,"x_max":417,"ha":447,"o":"m 319 300 l -19 300 l 77 419 l 417 419 l 319 300 "},"Q":{"x_min":10,"x_max":686,"ha":696,"o":"m 62 80 l 10 140 l 58 484 l 171 424 l 130 140 l 62 80 m 193 584 l 62 515 l 111 859 l 180 919 l 232 859 l 193 584 m 255 881 l 201 939 l 272 1000 l 565 1000 l 618 939 l 548 881 l 255 881 m 637 515 l 526 584 l 565 859 l 634 919 l 686 859 l 637 515 m 516 80 l 463 140 l 504 424 l 633 484 l 586 140 l 516 80 m 132 0 l 80 65 l 148 119 l 234 119 l 341 0 l 132 0 m 543 -177 l 272 119 l 438 119 l 565 -16 l 543 -177 "},"M":{"x_min":-10,"x_max":1158,"ha":1148,"o":"m 127 119 l -10 0 l 58 484 l 170 424 l 127 119 m 192 584 l 62 515 l 127 980 l 231 859 l 192 584 m 252 881 l 149 1000 l 1141 1000 l 1001 881 l 708 881 l 639 958 l 548 881 l 252 881 m 1092 515 l 981 584 l 1020 859 l 1158 979 l 1092 515 m 1020 0 l 916 119 l 957 424 l 1088 484 l 1020 0 m 576 506 l 521 552 l 566 862 l 634 923 l 685 859 l 642 552 l 576 506 m 505 0 l 458 100 l 505 430 l 573 484 l 626 430 l 580 100 l 505 0 "},"0":{"x_min":11,"x_max":687,"ha":699,"o":"m 63 80 l 11 140 l 59 484 l 171 424 l 131 140 l 63 80 m 193 584 l 63 515 l 112 859 l 181 919 l 232 859 l 193 584 m 256 881 l 202 939 l 273 1000 l 566 1000 l 618 939 l 549 881 l 256 881 m 638 515 l 527 584 l 566 859 l 635 919 l 687 859 l 638 515 m 517 80 l 464 140 l 505 424 l 634 484 l 587 140 l 517 80 m 132 0 l 78 60 l 149 119 l 442 119 l 495 60 l 425 0 l 132 0 "},"C":{"x_min":10,"x_max":686,"ha":617,"o":"m 62 80 l 10 140 l 58 484 l 169 415 l 130 140 l 62 80 m 191 575 l 62 515 l 111 859 l 180 919 l 232 859 l 191 575 m 255 881 l 201 939 l 272 1000 l 686 1000 l 548 881 l 255 881 m 132 0 l 77 60 l 148 119 l 441 119 l 545 0 l 132 0 "},".":{"x_min":-50,"x_max":101,"ha":161,"o":"m 70 0 l -50 0 l -19 215 l 101 215 l 70 0 "},"[":{"x_min":-10,"x_max":430,"ha":371,"o":"m 127 140 l -10 19 l 55 484 l 167 424 l 127 140 m 189 584 l 59 515 l 124 980 l 228 859 l 189 584 m 289 0 l 8 0 l 145 119 l 185 119 l 289 0 m 252 880 l 148 999 l 430 999 l 292 880 l 252 880 "},"@":{"x_min":155.609375,"x_max":1083,"ha":1115,"o":"m 828 200 q 806 199 821 199 q 725 230 757 199 q 694 303 694 260 q 695 319 694 313 q 664 270 684 290 q 548 212 610 212 q 479 228 516 212 q 412 298 437 249 q 388 422 388 347 q 390 475 388 457 l 397 525 q 455 679 415 611 q 547 783 494 746 q 655 821 599 821 q 770 746 735 821 l 776 732 l 792 813 l 859 813 l 790 512 l 764 388 q 760 362 762 377 q 759 335 759 347 q 763 301 759 316 q 820 256 774 256 q 841 260 830 256 q 880 280 865 269 q 927 330 894 291 q 973 405 951 356 q 1005 509 994 452 q 1015 618 1015 565 q 923 867 1015 772 q 682 960 830 960 q 648 958 667 960 q 616 954 627 955 q 363 815 470 933 q 237 525 255 696 q 235 492 235 510 q 234 464 234 474 q 244 365 234 413 q 378 126 273 215 q 620 38 483 38 q 844 101 734 38 l 916 150 q 997 230 959 187 l 1024 187 l 987 148 q 851 44 920 83 q 706 -9 780 4 q 609 -19 659 -19 q 287 116 417 -19 q 155 461 155 251 q 159 534 155 497 q 274 815 177 693 q 621 1017 415 993 q 655 1021 637 1021 q 681 1021 671 1021 q 971 909 859 1021 q 1083 619 1083 797 q 1070 501 1083 562 q 971 287 1042 369 q 828 200 906 210 m 462 404 q 475 316 462 348 q 553 265 497 265 q 619 292 588 265 q 656 337 642 315 q 688 407 668 359 q 721 518 707 452 l 724 531 l 737 592 q 742 624 739 607 q 743 654 743 639 q 735 703 743 683 q 655 762 707 762 q 585 735 620 762 q 541 685 563 718 q 497 597 519 651 q 478 529 484 564 q 462 404 462 458 "},"L":{"x_min":-9,"x_max":632,"ha":692,"o":"m 128 140 l -9 19 l 56 484 l 168 424 l 128 140 m 190 584 l 60 515 l 128 999 l 232 880 l 190 584 m 566 19 l 461 140 l 501 424 l 632 484 l 566 19 m 543 0 l 9 0 l 146 119 l 438 119 l 543 0 "},";":{"x_min":-90,"x_max":205,"ha":246,"o":"m 34 -131 l -90 -131 l 23 215 l 148 215 l 34 -131 m 175 445 l 55 445 l 83 650 l 205 650 l 175 445 "},"!":{"x_min":-10,"x_max":251,"ha":242,"o":"m 111 0 l -10 0 l 20 215 l 141 215 l 111 0 m 152 294 l 44 384 l 113 880 l 251 999 l 152 294 "},"6":{"x_min":14,"x_max":684,"ha":699,"o":"m 66 80 l 14 140 l 62 485 l 174 425 l 134 140 l 66 80 m 197 584 l 66 515 l 115 859 l 184 919 l 235 859 l 197 584 m 259 881 l 205 939 l 276 1000 l 684 1000 l 552 881 l 259 881 m 520 80 l 467 140 l 507 425 l 636 485 l 589 140 l 520 80 m 135 0 l 82 60 l 152 119 l 445 119 l 498 60 l 428 0 l 135 0 m 198 445 l 91 500 l 215 565 l 507 565 l 611 500 l 491 445 l 198 445 "},"A":{"x_min":-10,"x_max":703,"ha":694,"o":"m 127 119 l -10 0 l 58 485 l 170 425 l 127 119 m 192 584 l 62 515 l 127 980 l 231 859 l 192 584 m 255 881 l 150 1000 l 684 1000 l 547 881 l 255 881 m 637 515 l 525 584 l 564 859 l 703 980 l 637 515 m 565 0 l 460 119 l 503 425 l 633 485 l 565 0 m 193 445 l 88 500 l 210 565 l 503 565 l 607 500 l 486 445 l 193 445 "},"O":{"x_min":10,"x_max":686,"ha":696,"o":"m 62 80 l 10 140 l 58 484 l 171 424 l 130 140 l 62 80 m 193 584 l 62 515 l 111 859 l 180 919 l 232 859 l 193 584 m 255 881 l 201 939 l 272 1000 l 565 1000 l 618 939 l 548 881 l 255 881 m 637 515 l 526 584 l 565 859 l 634 919 l 686 859 l 637 515 m 516 80 l 463 140 l 504 424 l 633 484 l 586 140 l 516 80 m 132 0 l 77 60 l 148 119 l 441 119 l 494 60 l 424 0 l 132 0 "}," ":{"x_min":0,"x_max":0,"ha":403},"{":{"x_min":98,"x_max":461,"ha":370,"o":"m 171 401 q 172 416 172 412 q 151 476 172 452 q 98 500 131 500 l 131 508 q 196 598 187 532 l 252 1064 q 371 1155 264 1155 l 461 1155 l 455 1104 l 438 1104 q 372 1088 388 1104 q 347 1019 354 1072 l 297 608 q 262 536 291 566 q 190 500 232 505 q 250 470 226 495 q 272 405 272 444 q 271 391 271 395 l 219 -19 q 218 -34 218 -27 q 218 -48 218 -44 q 233 -93 218 -82 q 291 -104 248 -104 l 307 -104 l 300 -155 l 211 -155 q 113 -77 113 -155 q 114 -63 114 -68 l 171 401 "},"]":{"x_min":-50,"x_max":390,"ha":380,"o":"m 324 515 l 212 575 l 252 859 l 390 980 l 324 515 m 255 19 l 151 140 l 190 415 l 320 484 l 255 19 m 233 0 l -50 0 l 87 119 l 128 119 l 233 0 m 194 880 l 90 999 l 373 999 l 234 880 l 194 880 "},"X":{"x_min":-40,"x_max":651,"ha":611,"o":"m 44 0 l -40 0 l -26 101 l 227 486 l 290 486 l 269 344 l 44 0 m 232 514 l 87 905 l 100 999 l 187 999 l 313 652 l 292 514 l 232 514 m 386 514 l 322 514 l 341 652 l 567 999 l 651 999 l 637 901 l 386 514 m 423 0 l 298 344 l 318 486 l 381 486 l 524 98 l 510 0 l 423 0 "},"3":{"x_min":-48,"x_max":622,"ha":700,"o":"m 191 881 l 91 1000 l 501 1000 l 553 939 l 484 881 l 191 881 m 573 515 l 462 584 l 501 859 l 570 919 l 622 859 l 573 515 m 452 80 l 400 140 l 440 425 l 569 485 l 520 140 l 452 80 m 359 0 l -48 0 l 85 119 l 377 119 l 430 60 l 359 0 m 130 445 l 24 500 l 147 565 l 440 565 l 544 500 l 423 445 l 130 445 "},"P":{"x_min":-10,"x_max":687,"ha":697,"o":"m 127 119 l -10 0 l 58 485 l 170 425 l 127 119 m 192 584 l 62 515 l 127 980 l 231 859 l 192 584 m 255 881 l 150 1000 l 564 1000 l 617 939 l 548 881 l 255 881 m 638 515 l 525 584 l 564 859 l 634 919 l 687 859 l 638 515 m 193 445 l 88 500 l 210 565 l 503 565 l 607 500 l 487 445 l 193 445 "},"%":{"x_min":31,"x_max":1210,"ha":1240,"o":"m 86 564 l 31 624 l 64 861 l 136 919 l 189 859 l 156 624 l 86 564 m 209 881 l 157 937 l 226 1000 l 468 1000 l 519 937 l 450 881 l 209 881 m 486 564 l 436 624 l 469 861 l 536 921 l 590 862 l 557 626 l 486 564 m 154 490 l 100 544 l 172 608 l 413 608 l 464 544 l 396 490 l 154 490 m 669 473 l 619 594 l 923 1000 l 1066 1000 l 669 473 m 314 0 l 174 0 l 508 444 l 648 444 l 314 0 m 704 83 l 650 144 l 683 379 l 755 438 l 808 379 l 775 142 l 704 83 m 827 392 l 776 455 l 845 512 l 1087 512 l 1139 457 l 1068 392 l 827 392 m 1105 84 l 1055 144 l 1087 379 l 1155 440 l 1210 380 l 1176 144 l 1105 84 m 772 0 l 719 62 l 790 119 l 1030 119 l 1083 62 l 1014 0 l 772 0 "},"#":{"x_min":89,"x_max":761,"ha":729,"o":"m 248 318 l 89 318 l 102 380 l 262 380 l 312 620 l 153 620 l 165 682 l 326 682 l 387 977 l 449 977 l 388 682 l 538 682 l 599 977 l 662 977 l 601 682 l 761 682 l 747 620 l 587 620 l 537 380 l 696 380 l 683 318 l 523 318 l 461 22 l 398 22 l 461 318 l 311 318 l 248 22 l 186 22 l 248 318 m 324 380 l 474 380 l 524 620 l 375 620 l 324 380 "},"9":{"x_min":14,"x_max":684,"ha":699,"o":"m 635 515 l 523 574 l 563 859 l 632 919 l 684 859 l 635 515 m 514 80 l 462 140 l 501 415 l 631 485 l 584 140 l 514 80 m 423 0 l 14 0 l 147 119 l 439 119 l 492 60 l 423 0 m 190 574 l 61 515 l 109 859 l 178 919 l 230 859 l 190 574 m 254 881 l 199 939 l 270 1000 l 563 1000 l 616 939 l 546 881 l 254 881 m 192 445 l 86 500 l 209 565 l 502 565 l 606 500 l 485 445 l 192 445 "},"+":{"x_min":0,"x_max":595,"ha":596,"o":"m 206 440 l 0 440 l 72 559 l 224 559 l 278 501 l 206 440 m 369 440 l 323 499 l 389 559 l 595 559 l 524 440 l 369 440 m 323 270 l 195 216 l 224 419 l 293 480 l 344 419 l 323 270 m 299 518 l 245 581 l 266 730 l 396 784 l 367 580 l 299 518 "},"8":{"x_min":11,"x_max":687,"ha":699,"o":"m 63 80 l 11 140 l 59 485 l 171 425 l 131 140 l 63 80 m 193 584 l 63 515 l 112 859 l 181 919 l 232 859 l 193 584 m 256 881 l 202 939 l 273 1000 l 566 1000 l 618 939 l 549 881 l 256 881 m 638 515 l 527 584 l 566 859 l 635 919 l 687 859 l 638 515 m 517 80 l 464 140 l 505 425 l 634 485 l 587 140 l 517 80 m 132 0 l 78 60 l 149 119 l 442 119 l 495 60 l 425 0 l 132 0 m 195 445 l 88 500 l 212 565 l 505 565 l 609 500 l 488 445 l 195 445 "},"4":{"x_min":63,"x_max":707,"ha":700,"o":"m 193 584 l 63 515 l 131 999 l 235 880 l 193 584 m 638 515 l 526 584 l 568 880 l 707 999 l 638 515 m 565 0 l 461 119 l 504 425 l 633 485 l 565 0 m 194 445 l 88 500 l 211 565 l 504 565 l 608 500 l 487 445 l 194 445 "},")":{"x_min":-65,"x_max":354,"ha":364,"o":"m 305 515 l 191 575 l 232 859 l 301 919 l 354 859 l 305 515 m 183 80 l 130 140 l 169 415 l 301 484 l 252 140 l 183 80 m 91 0 l -65 0 l 43 119 l 108 119 l 161 60 l 91 0 m 150 881 l 75 1000 l 232 1000 l 284 939 l 215 881 l 150 881 "},"R":{"x_min":-10,"x_max":684,"ha":694,"o":"m 127 140 l -10 19 l 55 485 l 167 425 l 127 140 m 189 584 l 59 515 l 124 980 l 228 859 l 189 584 m 252 881 l 148 1000 l 562 1000 l 614 939 l 545 881 l 252 881 m 635 515 l 523 584 l 562 859 l 631 919 l 684 859 l 635 515 m 191 445 l 85 500 l 207 565 l 501 565 l 605 500 l 484 445 l 191 445 m 460 139 l 353 425 l 489 425 l 650 -1 l 460 139 "},"'":{"x_min":163,"x_max":278,"ha":233,"o":"m 250 688 l 163 688 l 190 1000 l 278 1000 l 250 688 "},"}":{"x_min":45,"x_max":408,"ha":370,"o":"m 134 -155 l 45 -155 l 52 -104 l 67 -104 q 134 -87 117 -104 q 158 -19 151 -72 l 208 391 q 244 463 214 433 q 315 500 273 494 q 257 530 279 504 q 233 594 233 555 q 234 608 234 604 l 286 1019 q 288 1050 288 1044 q 272 1093 288 1082 q 214 1104 255 1104 l 198 1104 l 205 1155 l 294 1155 q 392 1077 392 1155 q 391 1064 391 1068 l 334 598 q 333 583 333 587 q 353 523 333 547 q 408 500 374 500 q 343 472 370 500 q 309 401 315 444 l 252 -63 q 134 -155 241 -155 "},"5":{"x_min":-5,"x_max":686,"ha":700,"o":"m 197 584 l 67 515 l 115 859 l 185 919 l 236 859 l 197 584 m 260 881 l 205 939 l 276 1000 l 686 1000 l 552 881 l 260 881 m 520 80 l 468 140 l 508 425 l 638 485 l 590 140 l 520 80 m 429 0 l -5 0 l 128 119 l 446 119 l 498 60 l 429 0 m 199 445 l 93 500 l 215 565 l 508 565 l 612 500 l 491 445 l 199 445 "}}}
